<svg version="1.1" id="Layer_1" xmlns="http://www.w3.org/2000/svg" xmlns:xlink="http://www.w3.org/1999/xlink" x="0px" y="0px"
	 width="100%" viewBox="0 0 500 500" enable-background="new 0 0 500 500" xml:space="preserve">
<path fill="#1F1F1F" opacity="1.000000" stroke="none" 
	d="
M501.000000,193.000000 
	C501.000000,295.999969 501.000000,398.499969 501.000000,500.999939 
	C334.333405,500.999969 167.666794,500.999969 1.000144,501.000000 
	C1.000096,334.333435 1.000096,167.666870 1.000048,1.000234 
	C167.666519,1.000156 334.333038,1.000156 500.999786,1.000078 
	C501.000000,64.833336 501.000000,128.666672 501.000000,193.000000 
M280.019867,63.052418 
	C270.641815,62.400169 261.271820,61.467270 251.882782,61.197628 
	C245.952637,61.027325 239.994064,61.847679 233.313095,61.880280 
	C230.864395,61.725254 228.311630,61.046398 225.985565,61.508579 
	C217.297256,63.234913 208.606934,65.056702 200.069244,67.396858 
	C194.732666,68.859604 189.703629,71.413559 184.471252,73.296272 
	C179.559113,75.063759 174.450882,76.320168 169.620316,78.274498 
	C150.751068,85.908470 134.753601,98.171768 120.356361,112.026573 
	C109.733070,122.249619 101.095825,134.598785 92.041389,146.360657 
	C88.141975,151.426086 85.013527,157.208908 82.290283,163.019867 
	C79.730354,168.482300 78.129570,174.398819 76.170853,180.137421 
	C73.116966,189.084656 69.380966,197.883789 67.305801,207.056030 
	C65.311470,215.871048 64.754128,225.058960 64.116470,234.121780 
	C63.193096,247.245255 64.363724,260.306183 66.618073,273.251892 
	C67.589432,278.829956 68.685555,284.399719 70.051048,289.892181 
	C71.558105,295.954132 73.439102,301.923065 75.160767,308.687408 
	C77.269707,312.284851 76.159775,318.092377 82.403152,319.178131 
	C82.403152,319.178131 82.399284,319.449615 82.033386,320.117035 
	C82.215202,321.686157 82.019684,323.430115 82.650459,324.791168 
	C84.453049,328.680939 86.482124,332.477875 88.619507,336.197937 
	C93.633865,344.925293 97.267067,354.694885 106.501740,360.312103 
	C107.023140,360.629272 107.307297,361.327484 107.720161,361.833405 
	C113.268387,368.632385 118.245117,376.030151 124.541451,382.046814 
	C130.191971,387.446320 137.138321,391.571259 143.795929,395.814636 
	C152.002991,401.045563 160.149582,406.599426 168.968903,410.581757 
	C179.139771,415.174438 189.795929,419.153198 200.642410,421.670532 
	C213.780182,424.719635 227.282028,426.546295 240.728745,427.824890 
	C255.478149,429.227417 270.300934,427.818176 284.732697,424.601715 
	C295.966553,422.097992 306.990906,418.495819 317.910797,414.798248 
	C325.057343,412.378418 332.090851,409.362762 338.733154,405.792084 
	C344.946167,402.452209 350.901306,398.430542 356.391754,393.993469 
	C365.872223,386.331696 375.302307,378.520935 383.992188,369.996521 
	C390.269867,363.838409 395.970245,356.847137 400.745422,349.462738 
	C406.999084,339.792023 412.664795,329.634857 417.498383,319.185089 
	C421.501617,310.530487 424.204468,301.228943 426.919586,292.047241 
	C427.941315,288.592133 430.526276,284.695923 427.031281,280.237732 
	C427.090240,279.517059 427.149170,278.796356 427.975128,278.001251 
	C428.973267,276.399231 430.575317,274.892822 430.847107,273.175873 
	C431.461975,269.291718 431.199280,265.274597 431.711853,261.366455 
	C432.170837,257.866730 433.593658,254.471741 433.864594,250.974243 
	C434.247467,246.031616 434.404541,240.988312 433.862640,236.075806 
	C432.944672,227.754486 431.404816,219.501785 430.067535,210.839020 
	C429.170258,211.398865 428.383911,211.889481 427.252686,211.638733 
	C427.233856,210.828384 427.214996,210.018021 427.831573,208.659225 
	C428.044037,207.092117 428.696533,205.430267 428.383514,203.976288 
	C427.563019,200.165253 426.025482,196.501160 425.298676,192.678696 
	C422.155548,176.148895 413.450958,162.005371 405.969879,147.357193 
	C403.681549,142.876572 400.676056,138.715408 397.641144,134.676849 
	C394.937164,131.078644 391.750488,127.841545 388.755554,124.463951 
	C384.527161,119.695244 380.657562,114.521576 375.940826,110.295296 
	C370.411621,105.341034 363.962341,101.430458 358.221588,96.692291 
	C342.948425,84.086449 325.058472,76.587967 306.660706,70.200447 
	C298.259918,67.283783 289.491180,65.427078 280.019867,63.052418 
z"/>
<path fill="#CD5406" opacity="1.000000" stroke="none" 
	d="
M82.399284,319.449615 
	C82.399284,319.449615 82.403152,319.178131 82.298256,318.687134 
	C80.657799,314.410645 79.122238,310.625183 77.476501,306.452087 
	C77.056953,304.941498 76.789566,303.804993 76.431931,302.697601 
	C70.691536,284.923676 66.877396,266.756714 66.975960,248.039383 
	C67.029900,237.794876 67.838173,227.486298 69.217430,217.330338 
	C72.568375,192.656052 81.152740,169.856735 94.696068,148.870193 
	C105.411240,132.266113 117.929405,117.269539 133.384155,104.974358 
	C145.593689,95.260948 158.619873,86.814697 172.986954,80.310875 
	C186.382828,74.246681 200.304428,70.253845 214.512253,67.061615 
	C220.927643,65.620201 227.559875,65.144028 234.551849,64.155594 
	C247.902145,64.541931 260.794312,65.002594 274.063416,65.615387 
	C293.860474,68.161850 312.263275,74.182259 329.620392,82.885674 
	C351.920074,94.067429 371.107361,109.362015 387.429474,128.447021 
	C404.006531,147.830109 415.475067,169.767685 423.040161,193.923218 
	C424.616974,198.958069 425.820557,204.109802 427.196167,209.207672 
	C427.214996,210.018021 427.233856,210.828384 427.467896,212.423340 
	C428.532898,220.224625 430.249969,227.265808 430.052338,234.252853 
	C429.638794,248.875580 428.216278,263.469788 427.208130,278.075684 
	C427.149170,278.796356 427.090240,279.517059 426.876648,280.895142 
	C426.254913,282.600250 425.584442,283.604614 425.350586,284.702026 
	C420.180725,308.964294 409.974823,330.919952 395.304047,350.874207 
	C382.791016,367.893585 367.801727,382.371490 350.348999,394.197205 
	C333.184845,405.827393 314.434906,413.991943 294.406830,419.540375 
	C284.020874,422.417603 273.638306,424.439148 262.735413,424.726044 
	C262.051605,424.712067 261.540405,424.821045 260.563904,425.005646 
	C252.390823,425.031738 244.682999,424.982208 236.863403,424.873596 
	C236.506226,424.726440 236.268372,424.755493 235.572327,424.928619 
	C227.515411,423.898651 219.850037,423.212341 212.347748,421.711029 
	C194.216217,418.082611 176.780685,412.102997 160.853760,402.730133 
	C150.343246,396.544769 140.457642,389.177765 130.809555,381.674622 
	C116.295166,370.387024 104.529884,356.496185 94.948761,340.804413 
	C90.646774,333.758698 86.575340,326.572235 82.399284,319.449615 
M104.343506,144.115463 
	C103.469368,145.356903 102.595222,146.598328 101.097176,148.073273 
	C99.887352,149.416458 98.367447,150.589279 97.520073,152.131577 
	C93.291954,159.827164 88.630241,167.367233 85.287041,175.444595 
	C81.430214,184.762878 78.140068,194.430084 75.804260,204.231842 
	C73.394791,214.342712 72.428802,224.797577 70.491928,235.818024 
	C70.338715,240.566879 69.976990,245.322098 70.121986,250.061829 
	C70.192413,252.364151 71.211082,254.637451 71.958572,257.585510 
	C71.875313,279.395630 78.513947,299.674988 87.818916,318.863617 
	C93.852844,331.306732 101.777336,343.035095 110.197876,354.057648 
	C117.490028,363.603119 125.739647,372.939026 135.255051,380.133789 
	C147.491226,389.385712 161.228104,396.736755 174.657028,404.306061 
	C191.479889,413.788330 210.398941,416.735565 229.082413,419.702576 
	C244.228073,422.107758 259.399567,420.896729 274.706696,418.520752 
	C303.406616,414.065948 329.661194,404.437836 352.722351,386.644135 
	C360.708771,380.481903 369.162262,374.709717 376.167450,367.550964 
	C383.317078,360.244568 388.928528,351.437195 395.250824,343.316132 
	C406.013458,329.491302 413.463959,314.021118 418.738495,296.926636 
	C419.079407,296.294037 419.420319,295.661438 419.852264,294.271118 
	C419.952545,293.514648 420.052826,292.758148 420.460510,291.565094 
	C420.620789,291.060181 420.781067,290.555237 421.056183,289.233429 
	C422.055420,284.479004 423.054657,279.724609 424.391266,274.551453 
	C424.540771,274.043152 424.690308,273.534851 424.896545,272.092316 
	C425.597778,265.858765 426.762695,259.636261 426.911987,253.389511 
	C427.334839,235.696991 425.427948,218.207199 421.399048,200.466431 
	C420.946411,198.990372 420.493774,197.514297 419.953278,195.348251 
	C419.887939,194.889145 419.822601,194.430054 419.682098,193.418076 
	C419.205536,192.872849 418.728943,192.327621 418.214478,191.023239 
	C417.765930,189.337067 417.317383,187.650879 416.735962,185.415619 
	C416.246796,184.866928 415.757629,184.318237 415.226501,182.998245 
	C413.826965,179.341537 412.608459,175.602585 410.991638,172.044617 
	C407.190369,163.679611 403.689056,155.086212 396.600403,148.455307 
	C396.398346,147.206039 396.619354,145.614548 395.928589,144.760574 
	C389.244080,136.496689 382.992706,127.766609 375.486298,120.308304 
	C361.383087,106.295494 345.073151,95.186806 327.194244,86.319893 
	C304.797668,75.212509 281.175171,69.011742 256.259552,68.125557 
	C235.701157,67.394348 215.501953,69.769447 195.763672,76.088692 
	C159.665817,87.645462 129.993576,108.186867 107.042740,138.362457 
	C105.995255,139.739685 105.562057,141.584122 104.826340,143.439117 
	C104.826340,143.439117 104.850418,143.666611 104.343506,144.115463 
z"/>
<path fill="#39302B" opacity="1.000000" stroke="none" 
	d="
M236.975189,424.932678 
	C244.682999,424.982208 252.390823,425.031738 260.878723,425.046204 
	C262.075256,424.957092 262.491638,424.903046 262.908051,424.849030 
	C273.638306,424.439148 284.020874,422.417603 294.406830,419.540375 
	C314.434906,413.991943 333.184845,405.827393 350.348999,394.197205 
	C367.801727,382.371490 382.791016,367.893585 395.304047,350.874207 
	C409.974823,330.919952 420.180725,308.964294 425.350586,284.702026 
	C425.584442,283.604614 426.254913,282.600250 426.940674,281.253235 
	C430.526276,284.695923 427.941315,288.592133 426.919586,292.047241 
	C424.204468,301.228943 421.501617,310.530487 417.498383,319.185089 
	C412.664795,329.634857 406.999084,339.792023 400.745422,349.462738 
	C395.970245,356.847137 390.269867,363.838409 383.992188,369.996521 
	C375.302307,378.520935 365.872223,386.331696 356.391754,393.993469 
	C350.901306,398.430542 344.946167,402.452209 338.733154,405.792084 
	C332.090851,409.362762 325.057343,412.378418 317.910797,414.798248 
	C306.990906,418.495819 295.966553,422.097992 284.732697,424.601715 
	C270.300934,427.818176 255.478149,429.227417 240.728745,427.824890 
	C227.282028,426.546295 213.780182,424.719635 200.642410,421.670532 
	C189.795929,419.153198 179.139771,415.174438 168.968903,410.581757 
	C160.149582,406.599426 152.002991,401.045563 143.795929,395.814636 
	C137.138321,391.571259 130.191971,387.446320 124.541451,382.046814 
	C118.245117,376.030151 113.268387,368.632385 107.720161,361.833405 
	C107.307297,361.327484 107.023140,360.629272 106.501740,360.312103 
	C97.267067,354.694885 93.633865,344.925293 88.619507,336.197937 
	C86.482124,332.477875 84.453049,328.680939 82.650459,324.791168 
	C82.019684,323.430115 82.215202,321.686157 82.216339,319.783325 
	C86.575340,326.572235 90.646774,333.758698 94.948761,340.804413 
	C104.529884,356.496185 116.295166,370.387024 130.809555,381.674622 
	C140.457642,389.177765 150.343246,396.544769 160.853760,402.730133 
	C176.780685,412.102997 194.216217,418.082611 212.347748,421.711029 
	C219.850037,423.212341 227.515411,423.898651 235.805481,424.971069 
	C236.504318,424.986542 236.975189,424.932678 236.975189,424.932678 
z"/>
<path fill="#3A302A" opacity="1.000000" stroke="none" 
	d="
M234.093735,64.229919 
	C227.559875,65.144028 220.927643,65.620201 214.512253,67.061615 
	C200.304428,70.253845 186.382828,74.246681 172.986954,80.310875 
	C158.619873,86.814697 145.593689,95.260948 133.384155,104.974358 
	C117.929405,117.269539 105.411240,132.266113 94.696068,148.870193 
	C81.152740,169.856735 72.568375,192.656052 69.217430,217.330338 
	C67.838173,227.486298 67.029900,237.794876 66.975960,248.039383 
	C66.877396,266.756714 70.691536,284.923676 76.431931,302.697601 
	C76.789566,303.804993 77.056953,304.941498 77.162643,306.579437 
	C76.358383,307.373779 75.757797,307.653137 75.157227,307.932495 
	C73.439102,301.923065 71.558105,295.954132 70.051048,289.892181 
	C68.685555,284.399719 67.589432,278.829956 66.618073,273.251892 
	C64.363724,260.306183 63.193096,247.245255 64.116470,234.121780 
	C64.754128,225.058960 65.311470,215.871048 67.305801,207.056030 
	C69.380966,197.883789 73.116966,189.084656 76.170853,180.137421 
	C78.129570,174.398819 79.730354,168.482300 82.290283,163.019867 
	C85.013527,157.208908 88.141975,151.426086 92.041389,146.360657 
	C101.095825,134.598785 109.733070,122.249619 120.356361,112.026573 
	C134.753601,98.171768 150.751068,85.908470 169.620316,78.274498 
	C174.450882,76.320168 179.559113,75.063759 184.471252,73.296272 
	C189.703629,71.413559 194.732666,68.859604 200.069244,67.396858 
	C208.606934,65.056702 217.297256,63.234913 225.985565,61.508579 
	C228.311630,61.046398 230.864395,61.725254 233.683945,62.383568 
	C234.067780,63.334538 234.080765,63.782227 234.093735,64.229919 
z"/>
<path fill="#39302B" opacity="1.000000" stroke="none" 
	d="
M427.513855,208.933441 
	C425.820557,204.109802 424.616974,198.958069 423.040161,193.923218 
	C415.475067,169.767685 404.006531,147.830109 387.429474,128.447021 
	C371.107361,109.362015 351.920074,94.067429 329.620392,82.885674 
	C312.263275,74.182259 293.860474,68.161850 274.376221,65.358673 
	C276.504517,64.329765 278.696899,63.709702 280.889313,63.089638 
	C289.491180,65.427078 298.259918,67.283783 306.660706,70.200447 
	C325.058472,76.587967 342.948425,84.086449 358.221588,96.692291 
	C363.962341,101.430458 370.411621,105.341034 375.940826,110.295296 
	C380.657562,114.521576 384.527161,119.695244 388.755554,124.463951 
	C391.750488,127.841545 394.937164,131.078644 397.641144,134.676849 
	C400.676056,138.715408 403.681549,142.876572 405.969879,147.357193 
	C413.450958,162.005371 422.155548,176.148895 425.298676,192.678696 
	C426.025482,196.501160 427.563019,200.165253 428.383514,203.976288 
	C428.696533,205.430267 428.044037,207.092117 427.513855,208.933441 
z"/>
<path fill="#39302B" opacity="1.000000" stroke="none" 
	d="
M427.591614,278.038452 
	C428.216278,263.469788 429.638794,248.875580 430.052338,234.252853 
	C430.249969,227.265808 428.532898,220.224625 427.640320,212.794037 
	C428.383911,211.889481 429.170258,211.398865 430.067535,210.839020 
	C431.404816,219.501785 432.944672,227.754486 433.862640,236.075806 
	C434.404541,240.988312 434.247467,246.031616 433.864594,250.974243 
	C433.593658,254.471741 432.170837,257.866730 431.711853,261.366455 
	C431.199280,265.274597 431.461975,269.291718 430.847107,273.175873 
	C430.575317,274.892822 428.973267,276.399231 427.591614,278.038452 
z"/>
<path fill="#40332A" opacity="1.000000" stroke="none" 
	d="
M280.454590,63.071030 
	C278.696899,63.709702 276.504517,64.329765 273.999298,65.206543 
	C260.794312,65.002594 247.902145,64.541931 234.551849,64.155594 
	C234.080765,63.782227 234.067780,63.334538 234.051514,62.555267 
	C239.994064,61.847679 245.952637,61.027325 251.882782,61.197628 
	C261.271820,61.467270 270.641815,62.400169 280.454590,63.071030 
z"/>
<path fill="#39302B" opacity="1.000000" stroke="none" 
	d="
M75.158997,308.309937 
	C75.757797,307.653137 76.358383,307.373779 77.272820,306.967041 
	C79.122238,310.625183 80.657799,314.410645 82.208542,318.585236 
	C76.159775,318.092377 77.269707,312.284851 75.158997,308.309937 
z"/>
<path fill="#EC7928" opacity="1.000000" stroke="none" 
	d="
M424.053894,274.970184 
	C423.054657,279.724609 422.055420,284.479004 420.779724,289.714050 
	C420.386536,290.796997 420.269806,291.399353 420.153076,292.001678 
	C420.052826,292.758148 419.952545,293.514648 419.561279,294.778992 
	C418.932587,295.931519 418.594879,296.576172 418.257172,297.220856 
	C413.463959,314.021118 406.013458,329.491302 395.250824,343.316132 
	C388.928528,351.437195 383.317078,360.244568 376.167450,367.550964 
	C369.162262,374.709717 360.708771,380.481903 352.722351,386.644135 
	C329.661194,404.437836 303.406616,414.065948 274.706696,418.520752 
	C259.399567,420.896729 244.228073,422.107758 229.082413,419.702576 
	C210.398941,416.735565 191.479889,413.788330 174.657028,404.306061 
	C161.228104,396.736755 147.491226,389.385712 135.255051,380.133789 
	C125.739647,372.939026 117.490028,363.603119 110.197876,354.057648 
	C101.777336,343.035095 93.852844,331.306732 87.818916,318.863617 
	C78.513947,299.674988 71.875313,279.395630 71.914612,256.797668 
	C71.524193,249.040527 71.177742,242.071243 70.831284,235.101944 
	C72.428802,224.797577 73.394791,214.342712 75.804260,204.231842 
	C78.140068,194.430084 81.430214,184.762878 85.287041,175.444595 
	C88.630241,167.367233 93.291954,159.827164 97.520073,152.131577 
	C98.367447,150.589279 99.887352,149.416458 101.729187,148.003143 
	C102.573799,147.955338 102.786400,147.977676 103.015396,148.436020 
	C103.112259,149.448425 103.192719,150.024826 103.163940,150.873810 
	C102.567856,151.756668 102.081001,152.366898 101.360466,153.087952 
	C101.448807,154.198410 101.770828,155.198059 102.456345,156.375885 
	C104.633583,156.712936 106.447289,157.010452 108.261070,157.010880 
	C202.033096,157.033447 295.805145,157.036438 389.577148,156.994720 
	C391.693787,156.993774 393.810150,156.455170 396.125610,155.909485 
	C396.047668,154.422043 395.770691,153.192490 395.286438,151.834198 
	C395.079163,151.705444 394.872559,151.263321 394.905212,150.889587 
	C394.941467,150.015915 394.945038,149.515961 395.275757,149.019928 
	C395.820984,149.026535 396.039062,149.029251 396.257141,149.031967 
	C403.689056,155.086212 407.190369,163.679611 410.991638,172.044617 
	C412.608459,175.602585 413.826965,179.341537 415.280609,183.679535 
	C415.846100,184.895462 416.357483,185.430084 416.868835,185.964691 
	C417.317383,187.650879 417.765930,189.337067 418.266571,191.690948 
	C418.798187,192.896088 419.277710,193.433517 419.757263,193.970947 
	C419.822601,194.430054 419.887939,194.889145 419.824463,195.947327 
	C420.190338,198.030792 420.685059,199.515198 421.179810,200.999603 
	C425.427948,218.207199 427.334839,235.696991 426.911987,253.389511 
	C426.762695,259.636261 425.597778,265.858765 424.662048,272.637756 
	C424.303009,273.778839 424.178436,274.374512 424.053894,274.970184 
M403.141663,164.791702 
	C402.807922,164.161392 402.474182,163.531082 402.140472,162.900757 
	C401.722168,163.418701 401.303864,163.936661 400.511108,165.023422 
	C400.164581,165.313797 399.818085,165.604172 398.936066,166.213043 
	C398.311340,167.514099 397.686615,168.815155 396.862762,170.765533 
	C396.347351,171.502686 395.831970,172.239838 394.879608,173.274292 
	C394.609436,173.904312 394.339233,174.534332 393.892731,175.726166 
	C393.483795,176.144974 393.074890,176.563797 392.121185,177.338623 
	C391.839844,178.129898 391.558502,178.921173 391.225433,180.279938 
	C390.743378,180.849991 390.261353,181.420044 389.205872,182.321213 
	C388.886719,183.111572 388.567566,183.901932 388.183960,185.323944 
	C387.331451,186.544418 386.478943,187.764893 385.090057,189.327728 
	C384.801483,190.097153 384.512909,190.866592 384.216980,192.161087 
	C384.012146,192.435318 383.807281,192.709549 382.976440,193.212799 
	C382.057434,195.018311 381.138397,196.823807 380.103149,199.211227 
	C379.583282,199.799393 379.063416,200.387558 377.992371,201.261887 
	C377.344208,202.547928 376.696075,203.833984 375.888733,205.777069 
	C375.370605,206.507767 374.852478,207.238480 373.894958,208.278046 
	C373.626312,208.919495 373.357666,209.560944 372.934052,210.686081 
	C372.797943,210.786713 372.661804,210.887329 371.969604,211.283691 
	C371.009735,213.258270 370.049835,215.232834 368.926880,217.843323 
	C368.424347,218.553711 367.921844,219.264114 366.951324,220.295425 
	C366.680023,220.976120 366.408722,221.656815 365.949463,222.948883 
	C365.432739,223.623825 364.916016,224.298767 363.931213,225.308487 
	C363.673004,226.007263 363.414764,226.706039 362.955963,228.037613 
	C362.109314,229.350067 361.262665,230.662521 359.967987,232.234619 
	C359.647614,232.823563 359.327240,233.412506 358.838806,234.666794 
	C358.356812,235.435104 357.874817,236.203415 356.829376,237.217712 
	C356.265350,238.255188 355.701355,239.292679 355.086975,241.020279 
	C351.277924,247.343521 347.468842,253.666748 343.089020,260.260895 
	C342.413300,261.549927 341.737579,262.838959 340.990143,264.623901 
	C340.875671,264.745544 340.761230,264.867188 340.102448,265.334747 
	C339.817719,266.117950 339.532990,266.901184 339.295105,268.197418 
	C339.091339,268.460571 338.887573,268.723724 338.180420,269.191040 
	C337.776123,269.761871 337.371826,270.332672 336.844757,271.488159 
	C336.727722,271.649292 336.610657,271.810425 335.994171,272.334259 
	C335.733154,273.089569 335.472137,273.844910 334.988953,275.230286 
	C307.427704,321.811005 279.866455,368.391724 252.305206,414.972443 
	C252.515350,415.457764 252.725479,415.943085 252.935623,416.428436 
	C261.860352,415.508972 270.974915,415.429413 279.663666,413.465790 
	C291.571198,410.774750 303.603088,407.689941 314.760071,402.871521 
	C327.435486,397.397369 339.577087,390.408112 351.237610,382.960907 
	C359.076782,377.954193 365.677917,371.009033 373.447754,364.758087 
	C373.941681,364.116608 374.435608,363.475128 375.166992,362.216797 
	C378.310730,358.819092 381.454468,355.421387 385.057831,351.715149 
	C385.335571,351.053284 385.613281,350.391418 386.197876,349.158875 
	C387.892029,347.106720 389.586182,345.054565 391.817139,342.718903 
	C392.159180,342.018158 392.501221,341.317413 392.906952,340.228699 
	C392.906952,340.228699 393.228485,340.002502 393.775696,339.726196 
	C394.133362,339.025543 394.491058,338.324860 395.042419,337.031616 
	C395.752106,336.038361 396.461761,335.045074 397.797699,333.773621 
	C398.475708,332.361664 399.153748,330.949738 400.006958,328.946808 
	C400.520813,328.306763 401.034668,327.666718 402.035065,326.684326 
	C402.300507,325.960785 402.565948,325.237244 402.820496,323.956848 
	C403.005402,323.642151 403.190277,323.327454 403.961365,322.716400 
	C404.905701,320.608429 405.850037,318.500458 406.802002,315.851837 
	C407.016083,315.571930 407.230164,315.292023 408.036133,314.691986 
	C408.632904,312.971252 409.229675,311.250519 409.820007,308.958221 
	C410.022858,308.645020 410.225677,308.331818 411.004852,307.646301 
	C411.576813,305.526917 412.148804,303.407562 412.734100,300.631165 
	C413.266235,299.427948 413.798370,298.224762 414.748474,296.875000 
	C414.927887,296.276733 415.107300,295.678467 415.226410,294.347351 
	C415.418274,293.906677 415.610138,293.466003 416.236633,292.642517 
	C416.599365,290.799957 416.962128,288.957428 417.201538,286.339478 
	C417.653046,284.567993 418.104584,282.796478 418.939484,280.867371 
	C419.086029,280.287170 419.232544,279.706970 419.248047,278.340363 
	C419.377136,277.566223 419.506226,276.792084 420.109192,275.617706 
	C420.308868,274.835022 420.508545,274.052307 420.421600,272.534454 
	C420.713959,271.026489 421.006287,269.518524 421.906067,267.592468 
	C422.211395,267.018341 422.762451,266.453918 422.785614,265.868622 
	C423.197876,255.447662 423.927856,245.017303 423.740540,234.604233 
	C423.652100,229.688599 421.778473,224.805099 420.421661,219.239517 
	C420.531494,218.053848 420.641327,216.868164 420.794952,215.057556 
	C420.423096,214.365372 420.051239,213.673187 419.333649,212.242599 
	C419.378052,211.437195 419.422485,210.631775 419.673950,209.365005 
	C419.252533,208.570618 418.831116,207.776230 418.160095,206.327835 
	C418.169708,205.862976 418.179352,205.398102 418.407471,204.573120 
	C418.096985,204.044037 417.786469,203.514954 417.156006,202.378937 
	C417.018036,201.476990 416.880066,200.575058 416.850708,198.830139 
	C416.056458,196.543579 415.262207,194.257019 414.132904,191.385986 
	C413.676605,190.141388 413.220306,188.896774 412.828491,186.795959 
	C409.715363,179.821915 406.602203,172.847885 403.207153,165.680481 
	C403.207153,165.680481 403.193451,165.338928 403.141663,164.791702 
M102.532028,164.298904 
	C102.532028,164.298904 102.592102,164.344208 102.854759,164.976181 
	C151.031662,246.351151 199.208557,327.726105 247.831558,409.854584 
	C249.721893,407.320770 251.139236,405.734314 252.207443,403.940002 
	C261.470306,388.380737 270.648773,372.771210 279.894806,357.201904 
	C291.262787,338.059570 302.726257,318.973755 314.048859,299.804688 
	C328.165802,275.904907 342.182556,251.945908 356.239929,228.010910 
	C368.699158,206.797089 381.154816,185.581161 393.680817,164.326706 
	C393.680817,164.326706 393.646454,164.255219 394.234985,163.760986 
	C393.840698,163.092148 393.446411,162.423309 392.134460,161.508255 
	C391.469269,161.480545 390.804077,161.428574 390.138885,161.428543 
	C295.896698,161.424622 201.654510,161.422684 107.412315,161.440323 
	C105.928535,161.440598 104.444794,161.683792 102.242188,161.896179 
	C102.350525,162.674911 102.458862,163.453659 102.532028,164.298904 
M81.185646,291.967804 
	C81.502426,292.661224 81.819214,293.354614 82.493088,294.670807 
	C82.591484,295.137817 82.689873,295.604858 82.550087,296.630035 
	C84.283958,300.759399 86.017830,304.888733 88.131248,309.590424 
	C88.488014,310.901764 88.844788,312.213135 89.217896,314.154663 
	C89.707840,314.779572 90.197777,315.404480 91.114891,316.543365 
	C91.851906,318.131989 92.588921,319.720612 93.288254,321.971771 
	C93.751366,322.657349 94.214478,323.342926 95.003456,324.383667 
	C95.003456,324.383667 95.069397,324.861145 95.112267,325.425110 
	C95.584763,325.961456 96.057259,326.497803 97.142174,327.441925 
	C99.773323,331.943298 102.404472,336.444672 105.140602,341.647705 
	C107.574005,344.778748 110.007401,347.909821 112.796761,351.506561 
	C112.860687,351.691223 112.924622,351.875854 113.136772,352.622040 
	C113.707993,353.096497 114.279205,353.570984 115.463913,354.341217 
	C118.958626,358.286835 122.453331,362.232452 126.106178,366.781494 
	C127.026199,367.533600 127.946220,368.285706 129.361252,369.270752 
	C129.556839,369.570953 129.752426,369.871155 130.173462,370.735565 
	C130.838058,371.144684 131.502655,371.553833 132.657272,372.397552 
	C134.998489,374.460754 137.176392,376.756012 139.713120,378.541412 
	C146.021667,382.981537 152.493759,387.189270 159.070953,392.064087 
	C159.751678,392.354309 160.432419,392.644531 161.741196,393.062836 
	C162.465530,393.515350 163.189865,393.967865 164.253128,394.953003 
	C165.024582,395.184875 165.796021,395.416718 167.191345,395.750061 
	C168.103943,396.270233 169.016525,396.790405 170.215530,397.915283 
	C171.870834,398.576721 173.526138,399.238159 175.599884,399.990051 
	C175.599884,399.990051 175.939896,400.250153 176.239731,400.823914 
	C177.012848,401.104126 177.785950,401.384338 179.200089,401.807373 
	C179.761307,402.141205 180.322510,402.475067 181.281921,403.252716 
	C182.038177,403.387512 182.794434,403.522308 184.261765,403.803741 
	C203.229614,411.493286 222.933014,415.380493 244.203583,416.137665 
	C233.711319,398.187592 223.807083,381.245422 213.904709,364.302155 
	C204.051926,347.443787 194.265656,330.546143 184.333633,313.734619 
	C170.568436,290.434875 156.643005,267.229797 142.880539,243.928452 
	C127.534279,217.945557 112.293755,191.900208 96.778542,165.277893 
	C93.750732,163.290115 93.441078,165.361481 93.198425,168.169174 
	C92.962753,168.433441 92.727074,168.697693 91.934868,169.275375 
	C90.692543,172.365845 89.450218,175.456299 88.220512,179.077225 
	C88.045441,179.377533 87.870369,179.677856 87.095070,180.293457 
	C86.148590,183.405396 85.202118,186.517319 84.257797,190.146805 
	C84.061226,190.422180 83.864662,190.697540 83.105682,191.307037 
	C82.842804,192.103622 82.579926,192.900192 82.506203,194.262131 
	C82.381638,194.828613 82.257080,195.395081 81.627800,196.482483 
	C80.493767,200.837387 79.359734,205.192291 78.363678,210.353165 
	C77.776321,213.889145 77.188957,217.425110 76.005310,221.390839 
	C75.710518,221.969925 75.178307,222.540100 75.156166,223.129440 
	C74.753281,233.855606 74.131134,244.585785 74.196198,255.311218 
	C74.221954,259.557037 75.804306,263.793427 76.945740,268.846588 
	C77.393143,272.348633 77.840546,275.850708 78.155357,280.250549 
	C79.165924,283.517059 80.176483,286.783569 81.409454,290.464142 
	C81.505478,290.786194 81.462761,291.088623 81.185646,291.967804 
z"/>
<path fill="#E87626" opacity="1.000000" stroke="none" 
	d="
M396.428772,148.743637 
	C396.039062,149.029251 395.820984,149.026535 395.024109,149.001740 
	C394.107910,148.971313 393.770508,148.962982 393.151794,148.737366 
	C390.571472,145.363754 388.272430,142.207413 385.938843,138.790558 
	C385.480042,138.005432 385.055878,137.480835 384.354431,136.739273 
	C382.376587,134.688812 380.675995,132.855331 378.956787,130.773071 
	C378.569885,130.004532 378.201630,129.484787 377.502625,128.800003 
	C371.126984,122.920799 365.082001,117.206635 358.908173,111.249512 
	C358.145142,110.689674 357.510986,110.372810 356.570435,109.916855 
	C352.229523,106.886436 348.467682,103.470657 344.108246,101.204193 
	C332.063080,94.941872 319.870361,88.938919 307.546783,83.242638 
	C291.646881,75.893257 274.408722,74.172592 257.274109,72.790688 
	C249.080429,72.129875 240.731476,73.396584 232.452744,73.788063 
	C214.330368,74.645027 197.139252,79.477966 180.593140,86.552582 
	C153.687897,98.056458 131.163910,115.505501 112.179520,138.075272 
	C109.534081,139.856964 107.188408,141.533951 104.842743,143.210953 
	C105.562057,141.584122 105.995255,139.739685 107.042740,138.362457 
	C129.993576,108.186867 159.665817,87.645462 195.763672,76.088692 
	C215.501953,69.769447 235.701157,67.394348 256.259552,68.125557 
	C281.175171,69.011742 304.797668,75.212509 327.194244,86.319893 
	C345.073151,95.186806 361.383087,106.295494 375.486298,120.308304 
	C382.992706,127.766609 389.244080,136.496689 395.928589,144.760574 
	C396.619354,145.614548 396.398346,147.206039 396.428772,148.743637 
z"/>
<path fill="#D56F25" opacity="1.000000" stroke="none" 
	d="
M70.661606,235.459991 
	C71.177742,242.071243 71.524193,249.040527 71.835564,256.466858 
	C71.211082,254.637451 70.192413,252.364151 70.121986,250.061829 
	C69.976990,245.322098 70.338715,240.566879 70.661606,235.459991 
z"/>
<path fill="#D56F25" opacity="1.000000" stroke="none" 
	d="
M104.834541,143.325043 
	C107.188408,141.533951 109.534081,139.856964 112.105087,138.387299 
	C110.262077,141.151718 108.193726,143.708801 106.007507,145.924652 
	C105.543228,144.944473 105.196823,144.305542 104.850418,143.666611 
	C104.850418,143.666611 104.826340,143.439117 104.834541,143.325043 
z"/>
<path fill="#E87626" opacity="1.000000" stroke="none" 
	d="
M104.596962,143.891037 
	C105.196823,144.305542 105.543228,144.944473 105.950394,146.203918 
	C105.606483,147.208252 105.201805,147.592102 104.497421,147.968903 
	C103.798141,147.974594 103.398567,147.987289 102.998993,148.000000 
	C102.786400,147.977676 102.573799,147.955338 102.041145,147.886383 
	C102.595222,146.598328 103.469368,145.356903 104.596962,143.891037 
z"/>
<path fill="#DF7226" opacity="1.000000" stroke="none" 
	d="
M421.289429,200.733017 
	C420.685059,199.515198 420.190338,198.030792 419.868378,196.292328 
	C420.493774,197.514297 420.946411,198.990372 421.289429,200.733017 
z"/>
<path fill="#DF7226" opacity="1.000000" stroke="none" 
	d="
M418.497833,297.073730 
	C418.594879,296.576172 418.932587,295.931519 419.515747,295.157837 
	C419.420319,295.661438 419.079407,296.294037 418.497833,297.073730 
z"/>
<path fill="#DF7226" opacity="1.000000" stroke="none" 
	d="
M420.306793,291.783386 
	C420.269806,291.399353 420.386536,290.796997 420.722290,290.122498 
	C420.781067,290.555237 420.620789,291.060181 420.306793,291.783386 
z"/>
<path fill="#DF7226" opacity="1.000000" stroke="none" 
	d="
M416.802399,185.690155 
	C416.357483,185.430084 415.846100,184.895462 415.301605,184.065201 
	C415.757629,184.318237 416.246796,184.866928 416.802399,185.690155 
z"/>
<path fill="#DF7226" opacity="1.000000" stroke="none" 
	d="
M419.719666,193.694519 
	C419.277710,193.433517 418.798187,192.896088 418.285522,192.070526 
	C418.728943,192.327621 419.205536,192.872849 419.719666,193.694519 
z"/>
<path fill="#DF7226" opacity="1.000000" stroke="none" 
	d="
M424.222595,274.760803 
	C424.178436,274.374512 424.303009,273.778839 424.633667,273.104858 
	C424.690308,273.534851 424.540771,274.043152 424.222595,274.760803 
z"/>
<path fill="#EA5803" opacity="1.000000" stroke="none" 
	d="
M262.735413,424.726044 
	C262.491638,424.903046 262.075256,424.957092 261.344025,424.970581 
	C261.540405,424.821045 262.051605,424.712067 262.735413,424.726044 
z"/>
<path fill="#EA5803" opacity="1.000000" stroke="none" 
	d="
M236.863403,424.873596 
	C236.975189,424.932678 236.504318,424.986542 236.271179,424.944092 
	C236.268372,424.755493 236.506226,424.726440 236.863403,424.873596 
z"/>
<path fill="#252423" opacity="1.000000" stroke="none" 
	d="
M393.612030,164.366165 
	C381.154816,185.581161 368.699158,206.797089 356.239929,228.010910 
	C342.182556,251.945908 328.165802,275.904907 314.048859,299.804688 
	C302.726257,318.973755 291.262787,338.059570 279.894806,357.201904 
	C270.648773,372.771210 261.470306,388.380737 252.207443,403.940002 
	C251.139236,405.734314 249.721893,407.320770 247.831558,409.854584 
	C199.208557,327.726105 151.031662,246.351151 103.216644,164.584961 
	C105.406921,164.130814 107.235321,164.013016 109.063728,164.012833 
	C201.589233,164.003952 294.114716,164.002487 386.640228,164.020325 
	C388.964203,164.020767 391.288086,164.245865 393.612030,164.366165 
M272.169220,282.316803 
	C272.169220,280.037109 272.169220,277.757446 272.169220,275.512238 
	C290.896881,273.814758 299.851746,265.720856 298.985107,251.527023 
	C298.154968,237.929901 289.078003,230.994934 272.494293,231.287582 
	C270.698608,214.032562 264.262695,205.404663 251.747665,205.262405 
	C246.716629,205.205231 241.089920,206.768921 236.731705,209.307312 
	C228.671829,214.001633 227.988403,222.724701 227.943726,231.097198 
	C212.415222,231.366241 203.027786,238.590271 201.848358,250.807175 
	C201.286240,256.629822 202.279526,262.097351 205.764038,266.919220 
	C211.354370,274.655151 219.516541,275.941742 228.253296,274.992371 
	C227.986389,291.097595 235.608078,301.258820 248.017014,302.121124 
	C261.526428,303.059845 270.543762,295.997955 272.169220,282.316803 
z"/>
<path fill="#03242F" opacity="1.000000" stroke="none" 
	d="
M397.171448,334.051788 
	C396.461761,335.045074 395.752106,336.038361 394.671997,337.463165 
	C393.943909,338.597321 393.586212,339.299896 393.228485,340.002502 
	C393.228485,340.002502 392.906952,340.228699 392.585938,340.536865 
	C391.936737,341.564148 391.608551,342.283295 391.280334,343.002411 
	C389.586182,345.054565 387.892029,347.106720 385.779480,349.551361 
	C385.106812,350.637115 384.852509,351.330383 384.598206,352.023682 
	C381.454468,355.421387 378.310730,358.819092 374.774139,362.655090 
	C373.865173,363.705994 373.349091,364.318573 372.833008,364.931152 
	C365.677917,371.009033 359.076782,377.954193 351.237610,382.960907 
	C339.577087,390.408112 327.435486,397.397369 314.760071,402.871521 
	C303.603088,407.689941 291.571198,410.774750 279.663666,413.465790 
	C270.974915,415.429413 261.860352,415.508972 252.935623,416.428436 
	C252.725479,415.943085 252.515350,415.457764 252.305206,414.972443 
	C279.866455,368.391724 307.427704,321.811005 335.354431,274.738129 
	C335.977783,273.487823 336.235687,272.729706 336.493591,271.971558 
	C336.610657,271.810425 336.727722,271.649292 337.165100,271.100861 
	C337.884918,270.138000 338.284363,269.562439 338.683838,268.986877 
	C338.887573,268.723724 339.091339,268.460571 339.532135,267.754211 
	C340.061707,266.536957 340.354248,265.762909 340.646790,264.988861 
	C340.761230,264.867188 340.875671,264.745544 341.303589,264.222290 
	C342.297943,262.543762 342.978851,261.266876 343.659760,259.989990 
	C347.468842,253.666748 351.277924,247.343521 355.378296,240.524536 
	C356.244019,239.009781 356.818451,237.990768 357.392853,236.971741 
	C357.874817,236.203415 358.356812,235.435104 359.176025,234.237656 
	C359.814178,233.197327 360.115082,232.586136 360.416016,231.974960 
	C361.262665,230.662521 362.109314,229.350067 363.300812,227.563171 
	C363.896851,226.383713 364.148041,225.678696 364.399231,224.973694 
	C364.916016,224.298767 365.432739,223.623825 366.296448,222.502411 
	C366.902069,221.362137 367.160675,220.668320 367.419312,219.974503 
	C367.921844,219.264114 368.424347,218.553711 369.306519,217.382751 
	C370.632629,214.944107 371.579132,212.966034 372.525635,210.987961 
	C372.661804,210.887329 372.797943,210.786713 373.268188,210.331787 
	C373.846344,209.308075 374.090363,208.638626 374.334351,207.969193 
	C374.852478,207.238480 375.370605,206.507767 376.243042,205.300644 
	C377.246063,203.541397 377.894806,202.258560 378.543549,200.975708 
	C379.063416,200.387558 379.583282,199.799393 380.439453,198.719666 
	C381.717987,196.479996 382.660217,194.731888 383.602417,192.983780 
	C383.807281,192.709549 384.012146,192.435318 384.479553,191.717010 
	C385.036865,190.510406 385.331665,189.747894 385.626434,188.985367 
	C386.478943,187.764893 387.331451,186.544418 388.471313,184.810150 
	C389.098877,183.527588 389.439117,182.758850 389.779358,181.990112 
	C390.261353,181.420044 390.743378,180.849991 391.517395,179.810349 
	C392.094910,178.554703 392.380432,177.768646 392.665955,176.982605 
	C393.074890,176.563797 393.483795,176.144974 394.228577,175.326385 
	C394.815155,174.276733 395.065887,173.626862 395.316589,172.976990 
	C395.831970,172.239838 396.347351,171.502686 397.243469,170.302277 
	C398.239960,168.524200 398.855774,167.209381 399.471558,165.894562 
	C399.818085,165.604172 400.164581,165.313797 400.999084,164.814545 
	C402.055847,164.850082 402.624664,165.094498 403.193451,165.338928 
	C403.193451,165.338928 403.207153,165.680481 403.378815,166.129059 
	C406.621674,173.602478 409.692871,180.627319 412.764038,187.652176 
	C413.220306,188.896774 413.676605,190.141388 414.341248,192.046417 
	C415.280426,195.028915 416.011261,197.351013 416.742065,199.673111 
	C416.880066,200.575058 417.018036,201.476990 417.252563,202.954987 
	C417.629059,203.998428 417.909027,204.465836 418.188995,204.933243 
	C418.179352,205.398102 418.169708,205.862976 418.220947,206.970703 
	C418.676819,208.351181 419.071869,209.088776 419.466919,209.826370 
	C419.422485,210.631775 419.378052,211.437195 419.450043,212.912323 
	C419.961334,214.282196 420.356232,214.982346 420.751160,215.682495 
	C420.641327,216.868164 420.531494,218.053848 420.480713,219.914719 
	C421.109802,226.491104 422.122833,232.390213 422.150482,238.293945 
	C422.196869,248.197937 421.615753,258.104858 421.298645,268.010559 
	C421.006287,269.518524 420.713959,271.026489 420.325195,273.109222 
	C420.030975,274.461975 419.833130,275.239960 419.635315,276.017944 
	C419.506226,276.792084 419.377136,277.566223 419.094299,278.904480 
	C418.812439,279.987396 418.684265,280.506195 418.556122,281.024994 
	C418.104584,282.796478 417.653046,284.567993 417.047546,286.992218 
	C416.529724,289.438416 416.165863,291.231873 415.802002,293.025330 
	C415.610138,293.466003 415.418274,293.906677 415.057678,294.916534 
	C414.702820,295.997650 414.516663,296.509613 414.330505,297.021545 
	C413.798370,298.224762 413.266235,299.427948 412.465973,301.210419 
	C411.608063,303.865997 411.018311,305.942291 410.428528,308.018616 
	C410.225677,308.331818 410.022858,308.645020 409.547485,309.446106 
	C408.664734,311.626709 408.054474,313.319397 407.444214,315.012115 
	C407.230164,315.292023 407.016083,315.571930 406.520386,316.334290 
	C405.284241,318.882050 404.329712,320.947418 403.375153,323.012756 
	C403.190277,323.327454 403.005402,323.642151 402.597473,324.423035 
	C402.099152,325.601715 401.823853,326.314178 401.548523,327.026642 
	C401.034668,327.666718 400.520813,328.306763 399.640350,329.427765 
	C398.572968,331.289764 397.872192,332.670776 397.171448,334.051788 
z"/>
<path fill="#02232F" opacity="1.000000" stroke="none" 
	d="
M104.797127,147.975937 
	C105.201805,147.592102 105.606483,147.208252 106.068260,146.545151 
	C108.193726,143.708801 110.262077,141.151718 112.404854,138.282593 
	C131.163910,115.505501 153.687897,98.056458 180.593140,86.552582 
	C197.139252,79.477966 214.330368,74.645027 232.452744,73.788063 
	C240.731476,73.396584 249.080429,72.129875 257.274109,72.790688 
	C274.408722,74.172592 291.646881,75.893257 307.546783,83.242638 
	C319.870361,88.938919 332.063080,94.941872 344.108246,101.204193 
	C348.467682,103.470657 352.229523,106.886436 356.679626,110.169601 
	C357.742462,110.871788 358.389740,111.182121 359.037048,111.492462 
	C365.082001,117.206635 371.126984,122.920799 377.506592,129.049164 
	C378.219299,129.982864 378.597351,130.502350 378.975403,131.021851 
	C380.675995,132.855331 382.376587,134.688812 384.349182,137.007599 
	C385.071930,138.012299 385.522675,138.531677 385.973419,139.051071 
	C388.272430,142.207413 390.571472,145.363754 393.155304,149.033722 
	C393.917572,150.119354 394.395081,150.691330 394.872559,151.263321 
	C394.872559,151.263321 395.079163,151.705444 395.337646,152.285751 
	C395.430847,153.734177 395.265533,154.602280 394.628052,155.419678 
	C298.065857,155.358856 201.975876,155.348145 105.885902,155.346207 
	C104.890442,155.346176 103.894974,155.461182 102.660957,155.243408 
	C102.146317,154.301926 101.870232,153.639542 101.594147,152.977142 
	C102.081001,152.366898 102.567856,151.756668 103.404045,150.675385 
	C104.101295,149.461548 104.449211,148.718735 104.797127,147.975937 
z"/>
<path fill="#03242F" opacity="1.000000" stroke="none" 
	d="
M95.069397,324.861145 
	C95.069397,324.861145 95.003456,324.383667 94.827293,323.890198 
	C94.209404,322.700867 93.767670,322.005066 93.325935,321.309235 
	C92.588921,319.720612 91.851906,318.131989 90.885071,315.982208 
	C90.170692,314.788849 89.686127,314.156647 89.201553,313.524475 
	C88.844788,312.213135 88.488014,310.901764 87.920837,308.923401 
	C86.069710,304.194885 84.428986,300.133392 82.788261,296.071869 
	C82.689873,295.604858 82.591484,295.137817 82.394836,294.072754 
	C81.958160,292.773621 81.619728,292.072510 81.281296,291.371429 
	C81.462761,291.088623 81.505478,290.786194 81.387787,289.950867 
	C80.340057,286.075989 79.314003,282.714355 78.287949,279.352753 
	C77.840546,275.850708 77.393143,272.348633 76.790146,267.983154 
	C76.623573,251.733536 76.612579,236.347305 76.601593,220.961090 
	C77.188957,217.425110 77.776321,213.889145 78.549515,209.677826 
	C79.867737,204.655518 81.000130,200.308548 82.132523,195.961563 
	C82.257080,195.395081 82.381638,194.828613 82.657135,193.776230 
	C83.094742,192.517868 83.381424,191.745392 83.668091,190.972916 
	C83.864662,190.697540 84.061226,190.422180 84.507332,189.623718 
	C85.736343,186.059799 86.715820,183.018982 87.695297,179.978165 
	C87.870369,179.677856 88.045441,179.377533 88.461014,178.556107 
	C89.964806,175.010651 91.228104,171.986298 92.491394,168.961960 
	C92.727074,168.697693 92.962753,168.433441 93.514160,167.647964 
	C94.889000,166.711853 95.948105,166.296951 97.007210,165.882050 
	C112.293755,191.900208 127.534279,217.945557 142.880539,243.928452 
	C156.643005,267.229797 170.568436,290.434875 184.333633,313.734619 
	C194.265656,330.546143 204.051926,347.443787 213.904709,364.302155 
	C223.807083,381.245422 233.711319,398.187592 244.203583,416.137665 
	C222.933014,415.380493 203.229614,411.493286 183.718262,403.499756 
	C182.411072,403.066833 181.647400,402.937866 180.883728,402.808899 
	C180.322510,402.475067 179.761307,402.141205 178.681152,401.499939 
	C177.421448,400.878387 176.680664,400.564270 175.939896,400.250153 
	C175.939896,400.250153 175.599884,399.990051 175.204895,399.674866 
	C173.182983,398.676636 171.556046,397.993591 169.929108,397.310577 
	C169.016525,396.790405 168.103943,396.270233 166.701630,395.444885 
	C165.446014,394.899963 164.680099,394.660156 163.914200,394.420380 
	C163.189865,393.967865 162.465530,393.515350 161.227432,392.801514 
	C160.109177,392.190247 159.504669,391.840302 158.900162,391.490356 
	C152.493759,387.189270 146.021667,382.981537 139.713120,378.541412 
	C137.176392,376.756012 134.998489,374.460754 132.347168,371.882294 
	C131.340714,370.968475 130.644363,370.569916 129.948029,370.171356 
	C129.752426,369.871155 129.556839,369.570953 129.035950,368.858307 
	C127.789764,367.689941 126.868889,366.934021 125.948029,366.178101 
	C122.453331,362.232452 118.958626,358.286835 115.084763,353.916779 
	C114.133255,353.015076 113.560898,352.537781 112.988541,352.060486 
	C112.924622,351.875854 112.860687,351.691223 112.636360,350.948792 
	C109.995850,347.242706 107.515732,344.094360 105.035614,340.946045 
	C102.404472,336.444672 99.773323,331.943298 96.794586,326.968475 
	C95.987801,325.950409 95.528595,325.405762 95.069397,324.861145 
z"/>
<path fill="#FF8D27" opacity="1.000000" stroke="none" 
	d="
M102.899513,155.522476 
	C103.894974,155.461182 104.890442,155.346176 105.885902,155.346207 
	C201.975876,155.348145 298.065857,155.358856 394.727356,155.575119 
	C395.490143,155.939209 395.699402,156.067917 395.926636,156.167358 
	C393.810150,156.455170 391.693787,156.993774 389.577148,156.994720 
	C295.805145,157.036438 202.033096,157.033447 108.261070,157.010880 
	C106.447289,157.010452 104.633583,156.712936 102.615646,156.292389 
	C102.640030,155.924576 102.802719,155.755142 102.899513,155.522476 
z"/>
<path fill="#0F1A21" opacity="1.000000" stroke="none" 
	d="
M393.646423,164.346436 
	C391.288086,164.245865 388.964203,164.020767 386.640228,164.020325 
	C294.114716,164.002487 201.589233,164.003952 109.063728,164.012833 
	C107.235321,164.013016 105.406921,164.130814 103.085312,164.268982 
	C102.592102,164.344208 102.532028,164.298904 102.660767,163.870728 
	C102.846680,162.899567 102.903862,162.356583 102.961037,161.813614 
	C104.444794,161.683792 105.928535,161.440598 107.412315,161.440323 
	C201.654510,161.422684 295.896698,161.424622 390.138885,161.428543 
	C390.804077,161.428574 391.469269,161.480545 392.645782,162.058777 
	C393.320221,163.157944 393.483337,163.706589 393.646454,164.255219 
	C393.646454,164.255219 393.680817,164.326706 393.646423,164.346436 
z"/>
<path fill="#DF7226" opacity="1.000000" stroke="none" 
	d="
M421.602356,267.801514 
	C421.615753,258.104858 422.196869,248.197937 422.150482,238.293945 
	C422.122833,232.390213 421.109802,226.491104 420.626740,220.248474 
	C421.778473,224.805099 423.652100,229.688599 423.740540,234.604233 
	C423.927856,245.017303 423.197876,255.447662 422.785614,265.868622 
	C422.762451,266.453918 422.211395,267.018341 421.602356,267.801514 
z"/>
<path fill="#D56F25" opacity="1.000000" stroke="none" 
	d="
M76.303452,221.175964 
	C76.612579,236.347305 76.623573,251.733536 76.656242,267.576935 
	C75.804306,263.793427 74.221954,259.557037 74.196198,255.311218 
	C74.131134,244.585785 74.753281,233.855606 75.156166,223.129440 
	C75.178307,222.540100 75.710518,221.969925 76.303452,221.175964 
z"/>
<path fill="#DF7226" opacity="1.000000" stroke="none" 
	d="
M412.796265,187.224060 
	C409.692871,180.627319 406.621674,173.602478 403.519775,166.225739 
	C406.602203,172.847885 409.715363,179.821915 412.796265,187.224060 
z"/>
<path fill="#D56F25" opacity="1.000000" stroke="none" 
	d="
M82.669174,296.350952 
	C84.428986,300.133392 86.069710,304.194885 87.731064,308.637268 
	C86.017830,304.888733 84.283958,300.759399 82.669174,296.350952 
z"/>
<path fill="#D56F25" opacity="1.000000" stroke="none" 
	d="
M81.880157,196.222015 
	C81.000130,200.308548 79.867737,204.655518 78.480522,209.274841 
	C79.359734,205.192291 80.493767,200.837387 81.880157,196.222015 
z"/>
<path fill="#D56F25" opacity="1.000000" stroke="none" 
	d="
M105.088104,341.296875 
	C107.515732,344.094360 109.995850,347.242706 112.458374,350.715942 
	C110.007401,347.909821 107.574005,344.778748 105.088104,341.296875 
z"/>
<path fill="#D56F25" opacity="1.000000" stroke="none" 
	d="
M78.221649,279.801636 
	C79.314003,282.714355 80.340057,286.075989 81.276581,289.743835 
	C80.176483,286.783569 79.165924,283.517059 78.221649,279.801636 
z"/>
<path fill="#D56F25" opacity="1.000000" stroke="none" 
	d="
M87.395187,180.135803 
	C86.715820,183.018982 85.736343,186.059799 84.506256,189.364929 
	C85.202118,186.517319 86.148590,183.405396 87.395187,180.135803 
z"/>
<path fill="#D56F25" opacity="1.000000" stroke="none" 
	d="
M92.213135,169.118668 
	C91.228104,171.986298 89.964806,175.010651 88.454697,178.290878 
	C89.450218,175.456299 90.692543,172.365845 92.213135,169.118668 
z"/>
<path fill="#DF7226" opacity="1.000000" stroke="none" 
	d="
M416.796387,199.251617 
	C416.011261,197.351013 415.280426,195.028915 414.508789,192.338654 
	C415.262207,194.257019 416.056458,196.543579 416.796387,199.251617 
z"/>
<path fill="#DF7226" opacity="1.000000" stroke="none" 
	d="
M416.019318,292.833923 
	C416.165863,291.231873 416.529724,289.438416 417.109222,287.379913 
	C416.962128,288.957428 416.599365,290.799957 416.019318,292.833923 
z"/>
<path fill="#DF7226" opacity="1.000000" stroke="none" 
	d="
M410.716705,307.832458 
	C411.018311,305.942291 411.608063,303.865997 412.459320,301.538940 
	C412.148804,303.407562 411.576813,305.526917 410.716705,307.832458 
z"/>
<path fill="#DF7226" opacity="1.000000" stroke="none" 
	d="
M403.668274,322.864563 
	C404.329712,320.947418 405.284241,318.882050 406.516602,316.604614 
	C405.850037,318.500458 404.905701,320.608429 403.668274,322.864563 
z"/>
<path fill="#DF7226" opacity="1.000000" stroke="none" 
	d="
M372.247620,211.135834 
	C371.579132,212.966034 370.632629,214.944107 369.388062,217.064789 
	C370.049835,215.232834 371.009735,213.258270 372.247620,211.135834 
z"/>
<path fill="#DF7226" opacity="1.000000" stroke="none" 
	d="
M383.289429,193.098297 
	C382.660217,194.731888 381.717987,196.479996 380.497559,198.428711 
	C381.138397,196.823807 382.057434,195.018311 383.289429,193.098297 
z"/>
<path fill="#D56F25" opacity="1.000000" stroke="none" 
	d="
M96.892876,165.579971 
	C95.948105,166.296951 94.889000,166.711853 93.547073,167.378967 
	C93.441078,165.361481 93.750732,163.290115 96.892876,165.579971 
z"/>
<path fill="#DF7226" opacity="1.000000" stroke="none" 
	d="
M407.740173,314.852051 
	C408.054474,313.319397 408.664734,311.626709 409.550720,309.731934 
	C409.229675,311.250519 408.632904,312.971252 407.740173,314.852051 
z"/>
<path fill="#C0692B" opacity="1.000000" stroke="none" 
	d="
M170.072327,397.612915 
	C171.556046,397.993591 173.182983,398.676636 174.995682,399.629639 
	C173.526138,399.238159 171.870834,398.576721 170.072327,397.612915 
z"/>
<path fill="#DF7226" opacity="1.000000" stroke="none" 
	d="
M343.374390,260.125427 
	C342.978851,261.266876 342.297943,262.543762 341.339447,263.974335 
	C341.737579,262.838959 342.413300,261.549927 343.374390,260.125427 
z"/>
<path fill="#DF7226" opacity="1.000000" stroke="none" 
	d="
M378.267944,201.118805 
	C377.894806,202.258560 377.246063,203.541397 376.322632,204.972137 
	C376.696075,203.833984 377.344208,202.547928 378.267944,201.118805 
z"/>
<path fill="#DF7226" opacity="1.000000" stroke="none" 
	d="
M397.484558,333.912720 
	C397.872192,332.670776 398.572968,331.289764 399.552734,329.723267 
	C399.153748,330.949738 398.475708,332.361664 397.484558,333.912720 
z"/>
<path fill="#D56F25" opacity="1.000000" stroke="none" 
	d="
M396.125610,155.909485 
	C395.699402,156.067917 395.490143,155.939209 395.199554,155.625824 
	C395.265533,154.602280 395.430847,153.734177 395.544922,152.414505 
	C395.770691,153.192490 396.047668,154.422043 396.125610,155.909485 
z"/>
<path fill="#DF7226" opacity="1.000000" stroke="none" 
	d="
M399.203796,166.053802 
	C398.855774,167.209381 398.239960,168.524200 397.343018,169.977615 
	C397.686615,168.815155 398.311340,167.514099 399.203796,166.053802 
z"/>
<path fill="#DF7226" opacity="1.000000" stroke="none" 
	d="
M403.167542,165.065308 
	C402.624664,165.094498 402.055847,164.850082 401.186340,164.530151 
	C401.303864,163.936661 401.722168,163.418701 402.140472,162.900757 
	C402.474182,163.531082 402.807922,164.161392 403.167542,165.065308 
z"/>
<path fill="#DF7226" opacity="1.000000" stroke="none" 
	d="
M357.111115,237.094727 
	C356.818451,237.990768 356.244019,239.009781 355.403473,240.179474 
	C355.701355,239.292679 356.265350,238.255188 357.111115,237.094727 
z"/>
<path fill="#D56F25" opacity="1.000000" stroke="none" 
	d="
M126.027100,366.479797 
	C126.868889,366.934021 127.789764,367.689941 128.788437,368.741821 
	C127.946220,368.285706 127.026199,367.533600 126.027100,366.479797 
z"/>
<path fill="#D56F25" opacity="1.000000" stroke="none" 
	d="
M102.660957,155.243408 
	C102.802719,155.755142 102.640030,155.924576 102.252151,156.114243 
	C101.770828,155.198059 101.448807,154.198410 101.360466,153.087952 
	C101.870232,153.639542 102.146317,154.301926 102.660957,155.243408 
z"/>
<path fill="#DF7226" opacity="1.000000" stroke="none" 
	d="
M419.570435,209.595688 
	C419.071869,209.088776 418.676819,208.351181 418.345764,207.297729 
	C418.831116,207.776230 419.252533,208.570618 419.570435,209.595688 
z"/>
<path fill="#DF7226" opacity="1.000000" stroke="none" 
	d="
M414.539490,296.948273 
	C414.516663,296.509613 414.702820,295.997650 415.087830,295.282959 
	C415.107300,295.678467 414.927887,296.276733 414.539490,296.948273 
z"/>
<path fill="#D56F25" opacity="1.000000" stroke="none" 
	d="
M93.307098,321.640503 
	C93.767670,322.005066 94.209404,322.700867 94.664360,323.712585 
	C94.214478,323.342926 93.751366,322.657349 93.307098,321.640503 
z"/>
<path fill="#D56F25" opacity="1.000000" stroke="none" 
	d="
M89.209732,313.839569 
	C89.686127,314.156647 90.170692,314.788849 90.671494,315.725220 
	C90.197777,315.404480 89.707840,314.779572 89.209732,313.839569 
z"/>
<path fill="#DF7226" opacity="1.000000" stroke="none" 
	d="
M340.374634,265.161804 
	C340.354248,265.762909 340.061707,266.536957 339.508698,267.497681 
	C339.532990,266.901184 339.817719,266.117950 340.374634,265.161804 
z"/>
<path fill="#D56F25" opacity="1.000000" stroke="none" 
	d="
M95.090836,325.143127 
	C95.528595,325.405762 95.987801,325.950409 96.488388,326.764587 
	C96.057259,326.497803 95.584763,325.961456 95.090836,325.143127 
z"/>
<path fill="#DF7226" opacity="1.000000" stroke="none" 
	d="
M401.791809,326.855469 
	C401.823853,326.314178 402.099152,325.601715 402.602936,324.701477 
	C402.565948,325.237244 402.300507,325.960785 401.791809,326.855469 
z"/>
<path fill="#DF7226" opacity="1.000000" stroke="none" 
	d="
M393.502075,339.864349 
	C393.586212,339.299896 393.943909,338.597321 394.575165,337.759460 
	C394.491058,338.324860 394.133362,339.025543 393.502075,339.864349 
z"/>
<path fill="#DF7226" opacity="1.000000" stroke="none" 
	d="
M391.548737,342.860657 
	C391.608551,342.283295 391.936737,341.564148 392.554108,340.730835 
	C392.501221,341.317413 392.159180,342.018158 391.548737,342.860657 
z"/>
<path fill="#DF7226" opacity="1.000000" stroke="none" 
	d="
M384.828003,351.869385 
	C384.852509,351.330383 385.106812,350.637115 385.626038,349.836700 
	C385.613281,350.391418 385.335571,351.053284 384.828003,351.869385 
z"/>
<path fill="#D56F25" opacity="1.000000" stroke="none" 
	d="
M113.062653,352.341248 
	C113.560898,352.537781 114.133255,353.015076 114.778023,353.768921 
	C114.279205,353.570984 113.707993,353.096497 113.062653,352.341248 
z"/>
<path fill="#DF7226" opacity="1.000000" stroke="none" 
	d="
M373.140381,364.844635 
	C373.349091,364.318573 373.865173,363.705994 374.655396,362.963501 
	C374.435608,363.475128 373.941681,364.116608 373.140381,364.844635 
z"/>
<path fill="#D56F25" opacity="1.000000" stroke="none" 
	d="
M130.060745,370.453461 
	C130.644363,370.569916 131.340714,370.968475 132.102158,371.665009 
	C131.502655,371.553833 130.838058,371.144684 130.060745,370.453461 
z"/>
<path fill="#C0692B" opacity="1.000000" stroke="none" 
	d="
M158.985565,391.777222 
	C159.504669,391.840302 160.109177,392.190247 160.913406,392.737488 
	C160.432419,392.644531 159.751678,392.354309 158.985565,391.777222 
z"/>
<path fill="#C0692B" opacity="1.000000" stroke="none" 
	d="
M164.083664,394.686707 
	C164.680099,394.660156 165.446014,394.899963 166.389694,395.394165 
	C165.796021,395.416718 165.024582,395.184875 164.083664,394.686707 
z"/>
<path fill="#C0692B" opacity="1.000000" stroke="none" 
	d="
M176.089813,400.537048 
	C176.680664,400.564270 177.421448,400.878387 178.360641,401.428528 
	C177.785950,401.384338 177.012848,401.104126 176.089813,400.537048 
z"/>
<path fill="#C0692B" opacity="1.000000" stroke="none" 
	d="
M181.082825,403.030823 
	C181.647400,402.937866 182.411072,403.066833 183.362717,403.426453 
	C182.794434,403.522308 182.038177,403.387512 181.082825,403.030823 
z"/>
<path fill="#DF7226" opacity="1.000000" stroke="none" 
	d="
M395.098083,173.125641 
	C395.065887,173.626862 394.815155,174.276733 394.316772,175.045471 
	C394.339233,174.534332 394.609436,173.904312 395.098083,173.125641 
z"/>
<path fill="#DF7226" opacity="1.000000" stroke="none" 
	d="
M392.393555,177.160614 
	C392.380432,177.768646 392.094910,178.554703 391.543274,179.526611 
	C391.558502,178.921173 391.839844,178.129898 392.393555,177.160614 
z"/>
<path fill="#DF7226" opacity="1.000000" stroke="none" 
	d="
M389.492615,182.155670 
	C389.439117,182.758850 389.098877,183.527588 388.503540,184.494324 
	C388.567566,183.901932 388.886719,183.111572 389.492615,182.155670 
z"/>
<path fill="#DF7226" opacity="1.000000" stroke="none" 
	d="
M385.358246,189.156555 
	C385.331665,189.747894 385.036865,190.510406 384.483215,191.454468 
	C384.512909,190.866592 384.801483,190.097153 385.358246,189.156555 
z"/>
<path fill="#D56F25" opacity="1.000000" stroke="none" 
	d="
M83.386887,191.139984 
	C83.381424,191.745392 83.094742,192.517868 82.562553,193.493561 
	C82.579926,192.900192 82.842804,192.103622 83.386887,191.139984 
z"/>
<path fill="#DF7226" opacity="1.000000" stroke="none" 
	d="
M418.298218,204.753174 
	C417.909027,204.465836 417.629059,203.998428 417.412537,203.258453 
	C417.786469,203.514954 418.096985,204.044037 418.298218,204.753174 
z"/>
<path fill="#DF7226" opacity="1.000000" stroke="none" 
	d="
M374.114655,208.123627 
	C374.090363,208.638626 373.846344,209.308075 373.345703,210.089966 
	C373.357666,209.560944 373.626312,208.919495 374.114655,208.123627 
z"/>
<path fill="#DF7226" opacity="1.000000" stroke="none" 
	d="
M420.773041,215.370026 
	C420.356232,214.982346 419.961334,214.282196 419.622925,213.281525 
	C420.051239,213.673187 420.423096,214.365372 420.773041,215.370026 
z"/>
<path fill="#DF7226" opacity="1.000000" stroke="none" 
	d="
M367.185303,220.134964 
	C367.160675,220.668320 366.902069,221.362137 366.390442,222.196732 
	C366.408722,221.656815 366.680023,220.976120 367.185303,220.134964 
z"/>
<path fill="#D56F25" opacity="1.000000" stroke="none" 
	d="
M394.905212,150.889587 
	C394.395081,150.691330 393.917572,150.119354 393.436584,149.251007 
	C393.770508,148.962982 394.107910,148.971313 394.696960,148.997833 
	C394.945038,149.515961 394.941467,150.015915 394.905212,150.889587 
z"/>
<path fill="#DF7226" opacity="1.000000" stroke="none" 
	d="
M364.165222,225.141083 
	C364.148041,225.678696 363.896851,226.383713 363.401123,227.246765 
	C363.414764,226.706039 363.673004,226.007263 364.165222,225.141083 
z"/>
<path fill="#D56F25" opacity="1.000000" stroke="none" 
	d="
M104.497421,147.968903 
	C104.449211,148.718735 104.101295,149.461548 103.513275,150.402771 
	C103.192719,150.024826 103.112259,149.448425 103.015396,148.436020 
	C103.398567,147.987289 103.798141,147.974594 104.497421,147.968903 
z"/>
<path fill="#DF7226" opacity="1.000000" stroke="none" 
	d="
M360.191986,232.104782 
	C360.115082,232.586136 359.814178,233.197327 359.260071,233.904968 
	C359.327240,233.412506 359.647614,232.823563 360.191986,232.104782 
z"/>
<path fill="#DF7226" opacity="1.000000" stroke="none" 
	d="
M338.432129,269.088959 
	C338.284363,269.562439 337.884918,270.138000 337.226501,270.808533 
	C337.371826,270.332672 337.776123,269.761871 338.432129,269.088959 
z"/>
<path fill="#DF7226" opacity="1.000000" stroke="none" 
	d="
M336.243896,272.152893 
	C336.235687,272.729706 335.977783,273.487823 335.465515,274.423096 
	C335.472137,273.844910 335.733154,273.089569 336.243896,272.152893 
z"/>
<path fill="#DF7226" opacity="1.000000" stroke="none" 
	d="
M419.872253,275.817810 
	C419.833130,275.239960 420.030975,274.461975 420.468506,273.476807 
	C420.508545,274.052307 420.308868,274.835022 419.872253,275.817810 
z"/>
<path fill="#DF7226" opacity="1.000000" stroke="none" 
	d="
M418.747803,280.946167 
	C418.684265,280.506195 418.812439,279.987396 419.159851,279.297668 
	C419.232544,279.706970 419.086029,280.287170 418.747803,280.946167 
z"/>
<path fill="#D56F25" opacity="1.000000" stroke="none" 
	d="
M81.233475,291.669617 
	C81.619728,292.072510 81.958160,292.773621 82.216293,293.761353 
	C81.819214,293.354614 81.502426,292.661224 81.233475,291.669617 
z"/>
<path fill="#252423" opacity="1.000000" stroke="none" 
	d="
M102.601608,161.854889 
	C102.903862,162.356583 102.846680,162.899567 102.678352,163.837463 
	C102.458862,163.453659 102.350525,162.674911 102.601608,161.854889 
z"/>
<path fill="#252423" opacity="1.000000" stroke="none" 
	d="
M393.940735,164.008102 
	C393.483337,163.706589 393.320221,163.157944 393.104614,162.181885 
	C393.446411,162.423309 393.840698,163.092148 393.940735,164.008102 
z"/>
<path fill="#D56F25" opacity="1.000000" stroke="none" 
	d="
M358.908173,111.249504 
	C358.389740,111.182121 357.742462,110.871788 356.985992,110.308693 
	C357.510986,110.372810 358.145142,110.689674 358.908173,111.249504 
z"/>
<path fill="#D56F25" opacity="1.000000" stroke="none" 
	d="
M385.938843,138.790543 
	C385.522675,138.531677 385.071930,138.012299 384.626434,137.224579 
	C385.055878,137.480835 385.480042,138.005432 385.938843,138.790543 
z"/>
<path fill="#D56F25" opacity="1.000000" stroke="none" 
	d="
M378.956787,130.773056 
	C378.597351,130.502350 378.219299,129.982864 377.837280,129.214203 
	C378.201630,129.484787 378.569885,130.004532 378.956787,130.773056 
z"/>
<path fill="#EA701C" opacity="1.000000" stroke="none" 
	d="
M272.160400,282.768463 
	C270.543762,295.997955 261.526428,303.059845 248.017014,302.121124 
	C235.608078,301.258820 227.986389,291.097595 228.253296,274.992371 
	C219.516541,275.941742 211.354370,274.655151 205.764038,266.919220 
	C202.279526,262.097351 201.286240,256.629822 201.848358,250.807175 
	C203.027786,238.590271 212.415222,231.366241 227.943726,231.097198 
	C227.988403,222.724701 228.671829,214.001633 236.731705,209.307312 
	C241.089920,206.768921 246.716629,205.205231 251.747665,205.262405 
	C264.262695,205.404663 270.698608,214.032562 272.494293,231.287582 
	C289.078003,230.994934 298.154968,237.929901 298.985107,251.527023 
	C299.851746,265.720856 290.896881,273.814758 272.169220,275.512238 
	C272.169220,277.757446 272.169220,280.037109 272.160400,282.768463 
M248.858109,292.955688 
	C259.588531,292.756287 265.513550,285.715851 262.673340,276.237579 
	C260.597290,269.309601 255.518265,264.609650 249.891373,259.801971 
	C246.489532,263.737457 242.942841,267.088959 240.302322,271.045227 
	C233.989548,280.503662 237.280090,289.335266 248.858109,292.955688 
M226.068130,266.042877 
	C233.755676,264.501465 238.650177,259.084198 243.994232,253.204056 
	C239.890228,249.588715 236.222168,245.677811 231.901489,242.720322 
	C226.290573,238.879684 220.257507,239.422516 215.718018,243.220230 
	C211.414886,246.820251 209.908356,252.681305 211.885117,258.131958 
	C213.951736,263.830353 217.777679,266.124908 226.068130,266.042877 
M261.884216,258.643158 
	C265.143738,260.889099 268.164917,263.667297 271.717712,265.258331 
	C277.282867,267.750519 283.614136,265.725464 286.924957,261.218445 
	C290.341187,256.567963 290.426361,250.018417 287.131775,245.318451 
	C283.968842,240.806335 278.428528,239.181519 272.440216,240.987473 
	C265.514893,243.076004 261.550201,248.650009 257.059021,253.489700 
	C258.677032,255.230026 260.029938,256.685181 261.884216,258.643158 
M254.885986,242.484314 
	C257.350006,239.189331 260.373291,236.167404 262.146667,232.535233 
	C264.791260,227.118622 262.834747,220.614655 258.434662,217.238251 
	C253.857086,213.725677 247.364899,213.516724 242.547272,216.726974 
	C237.918381,219.811432 236.215424,225.164551 237.934555,231.305130 
	C239.888336,238.283981 245.444382,242.220428 250.812897,247.246048 
	C252.222672,245.551300 253.288147,244.270432 254.885986,242.484314 
z"/>
<path fill="#262423" opacity="1.000000" stroke="none" 
	d="
M248.452866,292.913391 
	C237.280090,289.335266 233.989548,280.503662 240.302322,271.045227 
	C242.942841,267.088959 246.489532,263.737457 249.891373,259.801971 
	C255.518265,264.609650 260.597290,269.309601 262.673340,276.237579 
	C265.513550,285.715851 259.588531,292.756287 248.452866,292.913391 
z"/>
<path fill="#262423" opacity="1.000000" stroke="none" 
	d="
M225.644623,266.086456 
	C217.777679,266.124908 213.951736,263.830353 211.885117,258.131958 
	C209.908356,252.681305 211.414886,246.820251 215.718018,243.220230 
	C220.257507,239.422516 226.290573,238.879684 231.901489,242.720322 
	C236.222168,245.677811 239.890228,249.588715 243.994232,253.204056 
	C238.650177,259.084198 233.755676,264.501465 225.644623,266.086456 
z"/>
<path fill="#262423" opacity="1.000000" stroke="none" 
	d="
M261.633545,258.391754 
	C260.029938,256.685181 258.677032,255.230026 257.059021,253.489700 
	C261.550201,248.650009 265.514893,243.076004 272.440216,240.987473 
	C278.428528,239.181519 283.968842,240.806335 287.131775,245.318451 
	C290.426361,250.018417 290.341187,256.567963 286.924957,261.218445 
	C283.614136,265.725464 277.282867,267.750519 271.717712,265.258331 
	C268.164917,263.667297 265.143738,260.889099 261.633545,258.391754 
z"/>
<path fill="#262423" opacity="1.000000" stroke="none" 
	d="
M254.619812,242.736938 
	C253.288147,244.270432 252.222672,245.551300 250.812897,247.246048 
	C245.444382,242.220428 239.888336,238.283981 237.934555,231.305130 
	C236.215424,225.164551 237.918381,219.811432 242.547272,216.726974 
	C247.364899,213.516724 253.857086,213.725677 258.434662,217.238251 
	C262.834747,220.614655 264.791260,227.118622 262.146667,232.535233 
	C260.373291,236.167404 257.350006,239.189331 254.619812,242.736938 
z"/>
</svg>